<svg xmlns="http://www.w3.org/2000/svg" xmlns:xlink="http://www.w3.org/1999/xlink" width="500" zoomAndPan="magnify" viewBox="0 0 375 374.999991" height="500" preserveAspectRatio="xMidYMid meet" version="1.0"><defs><clipPath id="e1d4e162a6"><path d="M 106 60.070312 L 185 60.070312 L 185 138 L 106 138 Z M 106 60.070312 " clip-rule="nonzero"/></clipPath><clipPath id="4e21b52d38"><path d="M 82 303 L 320.203125 303 L 320.203125 315 L 82 315 Z M 82 303 " clip-rule="nonzero"/></clipPath></defs><path fill="#ff914d" d="M 241.863281 154.089844 C 226.300781 154.089844 212.210938 160.40625 202.011719 170.613281 C 191.8125 180.820312 185.503906 194.921875 185.503906 210.5 C 185.503906 226.074219 191.8125 240.179688 202.011719 250.386719 C 212.210938 260.59375 226.300781 266.910156 241.863281 266.910156 C 257.425781 266.910156 271.515625 260.59375 281.714844 250.386719 C 291.910156 240.179688 298.21875 226.074219 298.21875 210.5 C 298.21875 194.921875 291.910156 180.820312 281.714844 170.613281 C 271.515625 160.40625 257.425781 154.089844 241.863281 154.089844 Z M 209.925781 178.53125 C 218.097656 170.351562 229.390625 165.292969 241.863281 165.292969 C 254.335938 165.292969 265.628906 170.351562 273.800781 178.53125 C 281.972656 186.714844 287.027344 198.015625 287.027344 210.5 C 287.027344 222.984375 281.972656 234.285156 273.800781 242.46875 C 265.625 250.648438 254.335938 255.707031 241.863281 255.707031 C 229.390625 255.707031 218.097656 250.648438 209.925781 242.464844 C 201.75 234.285156 196.695312 222.984375 196.695312 210.5 C 196.695312 198.015625 201.75 186.714844 209.925781 178.53125 Z M 209.925781 178.53125 " fill-opacity="1" fill-rule="nonzero"/><path fill="#ff914d" d="M 241.863281 174.296875 C 231.875 174.296875 222.832031 178.347656 216.285156 184.898438 C 209.738281 191.453125 205.691406 200.503906 205.691406 210.5 C 205.691406 220.496094 209.738281 229.546875 216.285156 236.101562 C 222.832031 242.652344 231.875 246.707031 241.863281 246.707031 C 251.851562 246.707031 260.894531 242.652344 267.4375 236.101562 C 273.984375 229.546875 278.035156 220.496094 278.035156 210.5 C 278.035156 200.503906 273.984375 191.453125 267.4375 184.898438 C 260.894531 178.347656 251.851562 174.296875 241.863281 174.296875 Z M 224.199219 192.820312 C 228.71875 188.296875 234.964844 185.496094 241.863281 185.496094 C 248.761719 185.496094 255.007812 188.296875 259.527344 192.820312 C 264.046875 197.34375 266.84375 203.59375 266.84375 210.5 C 266.84375 217.40625 264.046875 223.65625 259.527344 228.179688 C 255.007812 232.703125 248.761719 235.503906 241.863281 235.503906 C 234.964844 235.503906 228.71875 232.703125 224.199219 228.179688 C 219.679688 223.65625 216.882812 217.40625 216.882812 210.5 C 216.882812 203.59375 219.675781 197.34375 224.199219 192.820312 Z M 224.199219 192.820312 " fill-opacity="1" fill-rule="nonzero"/><path fill="#ff914d" d="M 256.285156 210.5 C 256.285156 211.449219 256.191406 212.386719 256.007812 213.316406 C 255.824219 214.246094 255.550781 215.148438 255.1875 216.023438 C 254.824219 216.898438 254.378906 217.730469 253.855469 218.519531 C 253.328125 219.308594 252.730469 220.035156 252.058594 220.707031 C 251.390625 221.378906 250.664062 221.976562 249.875 222.503906 C 249.085938 223.027344 248.257812 223.472656 247.382812 223.835938 C 246.507812 224.199219 245.605469 224.472656 244.675781 224.65625 C 243.746094 224.84375 242.808594 224.933594 241.863281 224.933594 C 240.914062 224.933594 239.976562 224.84375 239.046875 224.65625 C 238.121094 224.472656 237.21875 224.199219 236.34375 223.835938 C 235.46875 223.472656 234.636719 223.027344 233.851562 222.503906 C 233.0625 221.976562 232.332031 221.378906 231.664062 220.707031 C 230.996094 220.035156 230.398438 219.308594 229.871094 218.519531 C 229.34375 217.730469 228.898438 216.898438 228.539062 216.023438 C 228.175781 215.148438 227.902344 214.246094 227.71875 213.316406 C 227.53125 212.386719 227.441406 211.449219 227.441406 210.5 C 227.441406 209.550781 227.53125 208.613281 227.71875 207.683594 C 227.902344 206.753906 228.175781 205.851562 228.539062 204.976562 C 228.898438 204.101562 229.34375 203.269531 229.871094 202.480469 C 230.398438 201.691406 230.996094 200.960938 231.664062 200.292969 C 232.332031 199.621094 233.0625 199.023438 233.851562 198.496094 C 234.636719 197.96875 235.46875 197.527344 236.34375 197.164062 C 237.21875 196.800781 238.121094 196.527344 239.046875 196.339844 C 239.976562 196.15625 240.914062 196.0625 241.863281 196.0625 C 242.808594 196.0625 243.746094 196.15625 244.675781 196.339844 C 245.605469 196.527344 246.507812 196.800781 247.382812 197.164062 C 248.257812 197.527344 249.085938 197.96875 249.875 198.496094 C 250.664062 199.023438 251.390625 199.621094 252.058594 200.292969 C 252.730469 200.960938 253.328125 201.691406 253.855469 202.480469 C 254.378906 203.269531 254.824219 204.101562 255.1875 204.976562 C 255.550781 205.851562 255.824219 206.753906 256.007812 207.683594 C 256.191406 208.613281 256.285156 209.550781 256.285156 210.5 Z M 256.285156 210.5 " fill-opacity="1" fill-rule="nonzero"/><g clip-path="url(#e1d4e162a6)"><path fill="#ff914d" d="M 145.429688 60.078125 C 134.753906 60.078125 125.089844 64.410156 118.09375 71.414062 C 111.097656 78.414062 106.773438 88.085938 106.773438 98.769531 C 106.773438 109.453125 111.097656 119.128906 118.09375 126.128906 C 125.089844 133.128906 134.753906 137.460938 145.429688 137.460938 C 156.101562 137.460938 165.765625 133.128906 172.761719 126.128906 C 179.757812 119.128906 184.085938 109.453125 184.085938 98.769531 C 184.085938 88.085938 179.757812 78.414062 172.761719 71.414062 C 165.765625 64.410156 156.101562 60.078125 145.429688 60.078125 Z M 126.007812 79.332031 C 130.976562 74.359375 137.84375 71.28125 145.429688 71.28125 C 153.011719 71.28125 159.878906 74.359375 164.847656 79.332031 C 169.816406 84.304688 172.894531 91.179688 172.894531 98.769531 C 172.894531 106.363281 169.816406 113.234375 164.847656 118.207031 C 159.878906 123.183594 153.011719 126.261719 145.429688 126.261719 C 137.84375 126.261719 130.976562 123.183594 126.007812 118.207031 C 121.039062 113.234375 117.964844 106.363281 117.964844 98.769531 C 117.964844 91.179688 121.039062 84.304688 126.007812 79.332031 Z M 126.007812 79.332031 " fill-opacity="1" fill-rule="nonzero"/></g><path fill="#ff914d" d="M 162.492188 98.769531 C 162.492188 99.328125 162.464844 99.886719 162.410156 100.445312 C 162.355469 101 162.273438 101.554688 162.164062 102.101562 C 162.054688 102.652344 161.917969 103.191406 161.757812 103.726562 C 161.59375 104.261719 161.40625 104.789062 161.191406 105.304688 C 160.976562 105.824219 160.738281 106.328125 160.476562 106.820312 C 160.210938 107.316406 159.925781 107.792969 159.613281 108.257812 C 159.304688 108.722656 158.972656 109.171875 158.617188 109.605469 C 158.261719 110.039062 157.886719 110.449219 157.492188 110.847656 C 157.097656 111.242188 156.683594 111.617188 156.253906 111.972656 C 155.820312 112.328125 155.371094 112.660156 154.90625 112.96875 C 154.441406 113.28125 153.964844 113.570312 153.472656 113.832031 C 152.976562 114.097656 152.472656 114.335938 151.957031 114.546875 C 151.441406 114.761719 150.914062 114.949219 150.382812 115.113281 C 149.847656 115.277344 149.304688 115.410156 148.757812 115.519531 C 148.207031 115.628906 147.65625 115.710938 147.101562 115.765625 C 146.542969 115.820312 145.988281 115.847656 145.429688 115.847656 C 144.871094 115.847656 144.3125 115.820312 143.753906 115.765625 C 143.199219 115.710938 142.648438 115.628906 142.097656 115.519531 C 141.550781 115.410156 141.011719 115.277344 140.476562 115.113281 C 139.941406 114.949219 139.414062 114.761719 138.898438 114.546875 C 138.382812 114.335938 137.878906 114.097656 137.386719 113.832031 C 136.890625 113.570312 136.414062 113.28125 135.949219 112.96875 C 135.484375 112.660156 135.035156 112.328125 134.605469 111.972656 C 134.171875 111.617188 133.757812 111.242188 133.363281 110.847656 C 132.96875 110.449219 132.59375 110.039062 132.238281 109.605469 C 131.882812 109.171875 131.550781 108.722656 131.242188 108.257812 C 130.929688 107.792969 130.644531 107.316406 130.378906 106.820312 C 130.117188 106.328125 129.878906 105.824219 129.664062 105.304688 C 129.449219 104.789062 129.261719 104.261719 129.101562 103.726562 C 128.9375 103.191406 128.800781 102.652344 128.695312 102.101562 C 128.585938 101.554688 128.503906 101 128.449219 100.445312 C 128.394531 99.886719 128.367188 99.328125 128.367188 98.769531 C 128.367188 98.210938 128.394531 97.652344 128.449219 97.097656 C 128.503906 96.539062 128.585938 95.988281 128.695312 95.4375 C 128.800781 94.890625 128.9375 94.347656 129.101562 93.8125 C 129.261719 93.277344 129.449219 92.753906 129.664062 92.234375 C 129.878906 91.71875 130.117188 91.214844 130.378906 90.71875 C 130.644531 90.226562 130.929688 89.746094 131.242188 89.28125 C 131.550781 88.816406 131.882812 88.367188 132.238281 87.9375 C 132.59375 87.503906 132.96875 87.089844 133.363281 86.695312 C 133.757812 86.300781 134.171875 85.925781 134.605469 85.570312 C 135.035156 85.214844 135.484375 84.882812 135.949219 84.570312 C 136.414062 84.261719 136.890625 83.972656 137.386719 83.710938 C 137.878906 83.445312 138.382812 83.207031 138.898438 82.992188 C 139.414062 82.777344 139.941406 82.589844 140.476562 82.429688 C 141.011719 82.265625 141.550781 82.128906 142.097656 82.019531 C 142.648438 81.910156 143.199219 81.828125 143.753906 81.773438 C 144.3125 81.71875 144.871094 81.691406 145.429688 81.691406 C 145.988281 81.691406 146.542969 81.71875 147.101562 81.773438 C 147.65625 81.828125 148.207031 81.910156 148.757812 82.019531 C 149.304688 82.128906 149.847656 82.265625 150.382812 82.429688 C 150.914062 82.589844 151.441406 82.777344 151.957031 82.992188 C 152.472656 83.207031 152.976562 83.445312 153.472656 83.710938 C 153.964844 83.972656 154.441406 84.261719 154.90625 84.570312 C 155.371094 84.882812 155.820312 85.214844 156.253906 85.570312 C 156.683594 85.925781 157.097656 86.300781 157.492188 86.695312 C 157.886719 87.089844 158.261719 87.503906 158.617188 87.9375 C 158.972656 88.367188 159.304688 88.816406 159.613281 89.28125 C 159.925781 89.746094 160.210938 90.226562 160.476562 90.71875 C 160.738281 91.214844 160.976562 91.71875 161.191406 92.234375 C 161.40625 92.753906 161.59375 93.277344 161.757812 93.8125 C 161.917969 94.347656 162.054688 94.890625 162.164062 95.4375 C 162.273438 95.988281 162.355469 96.539062 162.410156 97.097656 C 162.464844 97.652344 162.492188 98.210938 162.492188 98.769531 Z M 162.492188 98.769531 " fill-opacity="1" fill-rule="nonzero"/><g clip-path="url(#4e21b52d38)"><path fill="#ff914d" d="M 314.609375 314.320312 C 317.699219 314.320312 320.203125 311.8125 320.203125 308.71875 C 320.203125 305.628906 317.699219 303.121094 314.609375 303.121094 L 87.957031 303.121094 C 84.863281 303.121094 82.359375 305.628906 82.359375 308.71875 C 82.359375 311.8125 84.863281 314.320312 87.957031 314.320312 Z M 314.609375 314.320312 " fill-opacity="1" fill-rule="nonzero"/></g><path fill="#ff914d" d="M 296.613281 219.582031 C 295.503906 216.707031 292.273438 215.277344 289.398438 216.390625 C 286.527344 217.5 285.097656 220.734375 286.207031 223.609375 C 295.683594 248.117188 290.609375 289.371094 288.53125 303.121094 L 276.039062 303.121094 C 275.503906 294.023438 273.46875 275.859375 265.769531 263.914062 C 264.101562 261.316406 260.648438 260.558594 258.050781 262.226562 C 255.457031 263.894531 254.703125 267.351562 256.367188 269.949219 C 265.160156 283.589844 265.039062 308.648438 265.039062 308.71875 C 265.039062 311.8125 267.546875 314.320312 270.636719 314.320312 L 293.269531 314.320312 L 293.269531 314.300781 C 295.917969 314.300781 298.273438 312.40625 298.753906 309.703125 C 298.785156 309.539062 309.222656 252.203125 296.613281 219.582031 Z M 296.613281 219.582031 " fill-opacity="1" fill-rule="nonzero"/><path fill="#ff914d" d="M 285.917969 245.628906 C 287.667969 243.09375 287.03125 239.617188 284.496094 237.863281 C 281.960938 236.113281 278.488281 236.75 276.738281 239.285156 C 272.570312 245.328125 261.730469 256.988281 261.699219 257.019531 L 261.484375 257.261719 L 261.480469 257.261719 C 245.011719 277.207031 241.0625 294.40625 240.191406 303.121094 L 227.332031 303.121094 C 228.109375 289.984375 228.0625 259.550781 212.699219 245.046875 C 212.410156 244.777344 212.101562 244.542969 211.773438 244.34375 C 209.03125 242.445312 191.453125 231.164062 168.851562 236.632812 C 166.480469 237.207031 164.835938 239.214844 164.609375 241.511719 C 164.597656 241.613281 161.441406 275.886719 137.082031 303.121094 L 122.296875 303.121094 C 129.054688 285.296875 142.933594 240.988281 128.453125 208.773438 C 126.082031 203.503906 123.449219 198.066406 120.808594 192.617188 C 105.285156 160.59375 89.527344 128.085938 117.058594 96.734375 C 119.097656 94.414062 118.875 90.878906 116.558594 88.835938 C 116.394531 88.691406 116.222656 88.558594 116.046875 88.4375 C 114.960938 87.578125 109.855469 83.359375 110.019531 79.945312 C 110.078125 78.726562 110.347656 77.867188 111.035156 77.582031 C 113.128906 76.710938 117.109375 76.8125 123.839844 78.238281 C 126.859375 78.867188 129.816406 76.925781 130.441406 73.90625 C 131.070312 70.886719 129.132812 67.925781 126.113281 67.300781 C 117.003906 65.371094 110.882812 65.535156 106.75 67.257812 C 101.210938 69.566406 99.136719 73.84375 98.871094 79.417969 C 98.605469 85.046875 102.152344 90.175781 105.214844 93.515625 C 77.558594 128.972656 94.269531 163.46875 110.753906 197.476562 C 113.300781 202.738281 115.847656 207.988281 118.265625 213.371094 C 134.023438 248.410156 110.96875 301.746094 109.023438 306.125 C 108.617188 306.902344 108.386719 307.785156 108.386719 308.71875 C 108.386719 311.8125 110.894531 314.320312 113.984375 314.320312 L 139.527344 314.320312 L 139.527344 314.304688 C 141.011719 314.304688 142.492188 313.714844 143.59375 312.546875 C 166.546875 288.132812 173.359375 257.703125 175.144531 246.765625 C 191.097656 244.351562 203.042969 251.875 205.230469 253.367188 C 220.015625 267.660156 216.117188 304.453125 215.726562 307.8125 C 215.675781 308.109375 215.652344 308.414062 215.652344 308.71875 C 215.652344 311.8125 218.15625 314.320312 221.246094 314.320312 L 245.578125 314.320312 L 245.578125 314.296875 C 245.734375 314.296875 245.898438 314.292969 246.058594 314.277344 C 249.125 314.011719 251.394531 311.308594 251.128906 308.238281 C 251.125 308.183594 249.25 289.660156 270.058594 264.429688 C 271.550781 262.820312 281.597656 251.890625 285.917969 245.628906 Z M 285.917969 245.628906 " fill-opacity="1" fill-rule="nonzero"/><path fill="#ff914d" d="M 158.738281 62.488281 C 155.753906 61.714844 152.710938 63.507812 151.9375 66.492188 C 151.164062 69.476562 152.957031 72.523438 155.9375 73.296875 C 156.003906 73.3125 175.703125 78.570312 191.324219 76.613281 C 192.269531 81.925781 192.664062 90.457031 187.082031 95.40625 C 185.519531 96.789062 183.503906 98.476562 181.585938 100.085938 C 176.015625 104.742188 171.261719 108.722656 168.464844 113.789062 C 166.441406 117.453125 165.222656 121.054688 164.769531 124.550781 C 164.066406 129.949219 165.171875 134.929688 167.941406 139.378906 C 170.535156 143.546875 174.5625 147.152344 179.875 150.089844 C 186.691406 153.859375 195.804688 156.589844 206.867188 158.03125 C 208.394531 158.230469 211 158.5625 213.5625 158.882812 C 229.371094 160.878906 244.53125 162.796875 257.105469 167.917969 C 259.964844 169.078125 263.222656 167.695312 264.382812 164.832031 C 265.542969 161.96875 264.160156 158.707031 261.300781 157.546875 C 247.496094 151.921875 231.570312 149.910156 214.960938 147.816406 C 213.09375 147.578125 211.246094 147.34375 208.308594 146.960938 C 198.683594 145.707031 190.902344 143.414062 185.253906 140.289062 C 181.636719 138.289062 179 135.992188 177.429688 133.472656 C 176.03125 131.226562 175.472656 128.714844 175.828125 125.996094 C 176.101562 123.910156 176.898438 121.628906 178.257812 119.171875 C 180.027344 115.960938 184.046875 112.597656 188.753906 108.660156 C 190.425781 107.261719 192.1875 105.785156 194.46875 103.761719 C 207.636719 92.089844 201.710938 71.433594 200.851562 68.691406 L 200.839844 68.648438 C 200.019531 65.675781 196.945312 63.929688 193.976562 64.753906 C 180.890625 68.390625 158.800781 62.503906 158.738281 62.488281 Z M 158.738281 62.488281 " fill-opacity="1" fill-rule="nonzero"/><path fill="#ff914d" d="M 128.027344 226.089844 C 131.023438 225.367188 132.863281 222.347656 132.136719 219.351562 C 131.414062 216.355469 128.398438 214.515625 125.40625 215.238281 C 125.320312 215.257812 96.136719 221.980469 88.066406 260.679688 L 79.390625 263.992188 C 76.757812 247.414062 73.21875 201.671875 106.988281 171.433594 C 109.285156 169.378906 109.480469 165.851562 107.425781 163.554688 C 105.375 161.261719 101.851562 161.066406 99.558594 163.117188 C 54.699219 203.28125 68.382812 266.988281 69.667969 272.507812 C 69.730469 272.871094 69.824219 273.226562 69.960938 273.582031 C 71.058594 276.46875 74.289062 277.917969 77.171875 276.820312 L 94.957031 270.023438 C 96.738281 269.339844 98.128906 267.757812 98.472656 265.734375 C 104.316406 231.523438 127.960938 226.105469 128.027344 226.089844 Z M 128.027344 226.089844 " fill-opacity="1" fill-rule="nonzero"/><path fill="#ff914d" d="M 78.566406 269.109375 C 79.074219 272.15625 81.949219 274.210938 84.992188 273.707031 C 88.035156 273.199219 90.089844 270.316406 89.582031 267.273438 C 87.394531 254.210938 89.230469 241.140625 94.40625 229.570312 C 99.582031 218.007812 108.105469 207.941406 119.292969 200.886719 C 121.898438 199.242188 122.683594 195.796875 121.042969 193.1875 C 119.398438 190.574219 115.953125 189.792969 113.347656 191.4375 C 100.257812 199.6875 90.285156 211.476562 84.222656 225.019531 C 78.160156 238.5625 76.011719 253.851562 78.566406 269.109375 Z M 78.566406 269.109375 " fill-opacity="1" fill-rule="nonzero"/><path fill="#ff914d" d="M 227.882812 308.019531 C 227.496094 311.078125 229.660156 313.867188 232.710938 314.253906 C 235.765625 314.640625 238.554688 312.476562 238.941406 309.421875 L 244.976562 261.953125 C 245.363281 258.894531 243.199219 256.105469 240.144531 255.71875 C 237.09375 255.332031 234.304688 257.496094 233.917969 260.550781 Z M 227.882812 308.019531 " fill-opacity="1" fill-rule="nonzero"/><path fill="#ff914d" d="M 276.398438 308.152344 C 276.085938 311.222656 278.316406 313.964844 281.382812 314.277344 C 284.449219 314.589844 287.191406 312.359375 287.503906 309.289062 C 290.003906 285.382812 287.136719 267.464844 284.238281 249.355469 L 283.578125 245.253906 C 283.109375 242.210938 280.261719 240.125 277.21875 240.597656 C 274.175781 241.066406 272.09375 243.917969 272.5625 246.960938 L 273.21875 251.105469 C 276.003906 268.476562 278.753906 285.660156 276.398438 308.152344 Z M 276.398438 308.152344 " fill-opacity="1" fill-rule="nonzero"/><path fill="#ff914d" d="M 205.660156 253.691406 C 208.183594 255.464844 211.667969 254.859375 213.441406 252.332031 C 215.214844 249.808594 214.609375 246.320312 212.085938 244.546875 C 181.671875 223.128906 159.578125 202.273438 145.808594 181.980469 C 132.4375 162.277344 126.96875 143.140625 129.398438 124.578125 C 129.796875 121.519531 127.640625 118.71875 124.589844 118.320312 C 121.535156 117.921875 118.734375 120.078125 118.335938 123.132812 C 115.539062 144.488281 121.625 166.191406 136.585938 188.238281 C 151.148438 209.699219 174.175781 231.519531 205.660156 253.691406 Z M 205.660156 253.691406 " fill-opacity="1" fill-rule="nonzero"/><path fill="#ff914d" d="M 191.777344 236.121094 C 193.660156 238.558594 197.164062 239.011719 199.601562 237.125 C 202.039062 235.242188 202.492188 231.734375 200.609375 229.292969 C 183.050781 206.613281 172.453125 186.015625 168.816406 167.5 C 165.3125 149.652344 168.363281 133.695312 177.972656 119.628906 C 179.710938 117.082031 179.054688 113.601562 176.507812 111.863281 C 173.960938 110.125 170.484375 110.78125 168.75 113.328125 C 157.375 129.976562 153.742188 148.746094 157.84375 169.640625 C 161.816406 189.867188 173.128906 212.027344 191.777344 236.121094 Z M 191.777344 236.121094 " fill-opacity="1" fill-rule="nonzero"/><path fill="#ff914d" d="M 186.027344 212.820312 C 187.308594 215.621094 190.617188 216.855469 193.417969 215.574219 C 196.21875 214.296875 197.449219 210.984375 196.171875 208.179688 C 191.820312 198.675781 189.34375 189.011719 188.738281 179.183594 C 188.128906 169.328125 189.394531 159.285156 192.539062 149.054688 C 193.441406 146.105469 191.789062 142.980469 188.84375 142.074219 C 185.898438 141.167969 182.777344 142.824219 181.871094 145.773438 C 178.328125 157.3125 176.898438 168.667969 177.589844 179.839844 C 178.28125 191.039062 181.09375 202.035156 186.027344 212.820312 Z M 186.027344 212.820312 " fill-opacity="1" fill-rule="nonzero"/><path fill="#ff914d" d="M 188.976562 247.007812 C 191.980469 247.707031 194.988281 245.835938 195.6875 242.828125 C 196.386719 239.820312 194.515625 236.8125 191.511719 236.113281 C 174.378906 232.097656 162.378906 227.003906 151.886719 220.078125 C 141.355469 213.125 131.96875 204.035156 120.296875 192.222656 C 118.125 190.023438 114.582031 190.003906 112.386719 192.179688 C 110.1875 194.355469 110.167969 197.898438 112.339844 200.097656 C 124.398438 212.304688 134.175781 221.742188 145.769531 229.398438 C 157.402344 237.078125 170.503906 242.675781 188.976562 247.007812 Z M 188.976562 247.007812 " fill-opacity="1" fill-rule="nonzero"/><path fill="#ff914d" d="M 154.746094 224.636719 C 154.566406 221.554688 151.921875 219.203125 148.84375 219.386719 C 145.765625 219.566406 143.417969 222.210938 143.597656 225.292969 C 144.527344 240.640625 143.074219 254.652344 139.273438 267.8125 C 135.464844 280.972656 129.273438 293.378906 120.730469 305.503906 C 118.953125 308.027344 119.5625 311.515625 122.085938 313.292969 C 124.605469 315.070312 128.089844 314.460938 129.867188 311.9375 C 139.097656 298.839844 145.8125 285.339844 149.980469 270.917969 C 154.152344 256.488281 155.75 241.234375 154.746094 224.636719 Z M 154.746094 224.636719 " fill-opacity="1" fill-rule="nonzero"/><path fill="#ff914d" d="M 283.765625 181.292969 C 284.289062 180.835938 284.90625 180.558594 285.539062 180.472656 C 286.199219 180.382812 286.878906 180.480469 287.492188 180.773438 C 288.089844 181.0625 288.585938 181.53125 288.929688 182.105469 C 289.277344 182.679688 289.460938 183.34375 289.433594 184.023438 C 289.410156 184.695312 289.175781 185.335938 288.792969 185.871094 C 288.414062 186.40625 287.882812 186.832031 287.253906 187.074219 L 291.277344 197.488281 C 293.996094 196.433594 296.269531 194.621094 297.886719 192.347656 C 299.503906 190.082031 300.46875 187.339844 300.582031 184.417969 C 300.691406 181.503906 299.9375 178.707031 298.503906 176.328125 C 297.070312 173.953125 294.941406 171.976562 292.300781 170.710938 C 289.671875 169.453125 286.804688 169.03125 284.050781 169.40625 C 281.269531 169.78125 278.605469 170.945312 276.417969 172.847656 Z M 283.765625 181.292969 " fill-opacity="1" fill-rule="nonzero"/></svg>